<mxfile host="app.diagrams.net" modified="2020-10-22T06:01:01.911Z" agent="5.0 (Windows NT 10.0; Win64; x64) AppleWebKit/537.36 (KHTML, like Gecko) Chrome/86.0.4240.75 Safari/537.36" etag="WBVMdIoDQvUDCu6w1pnH" version="13.8.1" type="github">
  <diagram id="R2lEEEUBdFMjLlhIrx00" name="Page-1">
    <mxGraphModel dx="1888" dy="580" grid="1" gridSize="10" guides="1" tooltips="1" connect="1" arrows="1" fold="1" page="1" pageScale="1" pageWidth="850" pageHeight="1100" math="0" shadow="0" extFonts="Permanent Marker^https://fonts.googleapis.com/css?family=Permanent+Marker">
      <root>
        <mxCell id="0" />
        <mxCell id="1" parent="0" />
        <mxCell id="srleR5UreNinxI_V4HJW-1" value="DATABASE" style="shape=cylinder3;whiteSpace=wrap;html=1;boundedLbl=1;backgroundOutline=1;size=15;" parent="1" vertex="1">
          <mxGeometry x="360" y="280" width="80" height="80" as="geometry" />
        </mxCell>
        <mxCell id="srleR5UreNinxI_V4HJW-4" value="Login" style="rounded=0;whiteSpace=wrap;html=1;" parent="1" vertex="1">
          <mxGeometry x="20" y="30" width="80" height="40" as="geometry" />
        </mxCell>
        <mxCell id="srleR5UreNinxI_V4HJW-5" value="ID" style="ellipse;whiteSpace=wrap;html=1;" parent="1" vertex="1">
          <mxGeometry x="-100" y="10" width="80" height="30" as="geometry" />
        </mxCell>
        <mxCell id="srleR5UreNinxI_V4HJW-7" value="User" style="ellipse;whiteSpace=wrap;html=1;" parent="1" vertex="1">
          <mxGeometry x="-110" y="50" width="80" height="30" as="geometry" />
        </mxCell>
        <mxCell id="srleR5UreNinxI_V4HJW-9" value="Password" style="ellipse;whiteSpace=wrap;html=1;" parent="1" vertex="1">
          <mxGeometry x="-30" y="90" width="80" height="30" as="geometry" />
        </mxCell>
        <mxCell id="srleR5UreNinxI_V4HJW-11" value="" style="endArrow=none;html=1;exitX=1;exitY=1;exitDx=0;exitDy=0;entryX=0;entryY=0.25;entryDx=0;entryDy=0;" parent="1" source="srleR5UreNinxI_V4HJW-5" target="srleR5UreNinxI_V4HJW-4" edge="1">
          <mxGeometry width="50" height="50" relative="1" as="geometry">
            <mxPoint x="-30" y="70" as="sourcePoint" />
            <mxPoint x="20" y="20" as="targetPoint" />
          </mxGeometry>
        </mxCell>
        <mxCell id="srleR5UreNinxI_V4HJW-12" value="" style="endArrow=none;html=1;exitX=1;exitY=0.5;exitDx=0;exitDy=0;" parent="1" source="srleR5UreNinxI_V4HJW-7" edge="1">
          <mxGeometry width="50" height="50" relative="1" as="geometry">
            <mxPoint x="-30" y="100" as="sourcePoint" />
            <mxPoint x="20" y="50" as="targetPoint" />
          </mxGeometry>
        </mxCell>
        <mxCell id="srleR5UreNinxI_V4HJW-13" value="" style="endArrow=none;html=1;exitX=1;exitY=0;exitDx=0;exitDy=0;entryX=0.25;entryY=1;entryDx=0;entryDy=0;" parent="1" source="srleR5UreNinxI_V4HJW-9" target="srleR5UreNinxI_V4HJW-4" edge="1">
          <mxGeometry width="50" height="50" relative="1" as="geometry">
            <mxPoint x="-30" y="110" as="sourcePoint" />
            <mxPoint x="20" y="60" as="targetPoint" />
            <Array as="points" />
          </mxGeometry>
        </mxCell>
        <mxCell id="srleR5UreNinxI_V4HJW-14" value="Manages" style="rhombus;whiteSpace=wrap;html=1;" parent="1" vertex="1">
          <mxGeometry x="170" y="20" width="70" height="70" as="geometry" />
        </mxCell>
        <mxCell id="srleR5UreNinxI_V4HJW-15" value="Authorization" style="rhombus;whiteSpace=wrap;html=1;" parent="1" vertex="1">
          <mxGeometry x="355" y="140" width="90" height="70" as="geometry" />
        </mxCell>
        <mxCell id="srleR5UreNinxI_V4HJW-16" value="" style="endArrow=none;html=1;entryX=0.5;entryY=1;entryDx=0;entryDy=0;exitX=0.5;exitY=0;exitDx=0;exitDy=0;exitPerimeter=0;" parent="1" source="srleR5UreNinxI_V4HJW-1" target="srleR5UreNinxI_V4HJW-15" edge="1">
          <mxGeometry width="50" height="50" relative="1" as="geometry">
            <mxPoint x="380" y="290" as="sourcePoint" />
            <mxPoint x="430" y="240" as="targetPoint" />
          </mxGeometry>
        </mxCell>
        <mxCell id="srleR5UreNinxI_V4HJW-18" value="System" style="rounded=0;whiteSpace=wrap;html=1;" parent="1" vertex="1">
          <mxGeometry x="340" y="30" width="120" height="40" as="geometry" />
        </mxCell>
        <mxCell id="srleR5UreNinxI_V4HJW-19" value="" style="endArrow=none;html=1;entryX=0.5;entryY=1;entryDx=0;entryDy=0;" parent="1" source="srleR5UreNinxI_V4HJW-15" target="srleR5UreNinxI_V4HJW-18" edge="1">
          <mxGeometry width="50" height="50" relative="1" as="geometry">
            <mxPoint x="270" y="250" as="sourcePoint" />
            <mxPoint x="320" y="200" as="targetPoint" />
          </mxGeometry>
        </mxCell>
        <mxCell id="srleR5UreNinxI_V4HJW-20" value="" style="endArrow=none;html=1;exitX=0;exitY=0.5;exitDx=0;exitDy=0;" parent="1" source="srleR5UreNinxI_V4HJW-14" edge="1">
          <mxGeometry width="50" height="50" relative="1" as="geometry">
            <mxPoint x="270" y="250" as="sourcePoint" />
            <mxPoint x="100" y="55" as="targetPoint" />
          </mxGeometry>
        </mxCell>
        <mxCell id="srleR5UreNinxI_V4HJW-21" value="" style="endArrow=none;html=1;exitX=1;exitY=0.5;exitDx=0;exitDy=0;" parent="1" source="srleR5UreNinxI_V4HJW-14" edge="1">
          <mxGeometry width="50" height="50" relative="1" as="geometry">
            <mxPoint x="250" y="80" as="sourcePoint" />
            <mxPoint x="340" y="55" as="targetPoint" />
          </mxGeometry>
        </mxCell>
        <mxCell id="srleR5UreNinxI_V4HJW-22" value="BUYER" style="rounded=0;whiteSpace=wrap;html=1;" parent="1" vertex="1">
          <mxGeometry x="70" y="310" width="120" height="40" as="geometry" />
        </mxCell>
        <mxCell id="srleR5UreNinxI_V4HJW-23" value="SELLER" style="rounded=0;whiteSpace=wrap;html=1;" parent="1" vertex="1">
          <mxGeometry x="610" y="310" width="130" height="40" as="geometry" />
        </mxCell>
        <mxCell id="srleR5UreNinxI_V4HJW-24" value="Buyer_Name" style="ellipse;whiteSpace=wrap;html=1;" parent="1" vertex="1">
          <mxGeometry x="10" y="260" width="90" height="30" as="geometry" />
        </mxCell>
        <mxCell id="srleR5UreNinxI_V4HJW-25" value="Phone Number" style="ellipse;whiteSpace=wrap;html=1;" parent="1" vertex="1">
          <mxGeometry x="110" y="250" width="100" height="30" as="geometry" />
        </mxCell>
        <mxCell id="srleR5UreNinxI_V4HJW-26" value="Address" style="ellipse;whiteSpace=wrap;html=1;" parent="1" vertex="1">
          <mxGeometry x="-60" y="300" width="90" height="30" as="geometry" />
        </mxCell>
        <mxCell id="srleR5UreNinxI_V4HJW-27" value="Email" style="ellipse;whiteSpace=wrap;html=1;" parent="1" vertex="1">
          <mxGeometry x="-50" y="350" width="90" height="30" as="geometry" />
        </mxCell>
        <mxCell id="srleR5UreNinxI_V4HJW-28" value="Pan Card" style="ellipse;whiteSpace=wrap;html=1;" parent="1" vertex="1">
          <mxGeometry x="10" y="400" width="90" height="30" as="geometry" />
        </mxCell>
        <mxCell id="srleR5UreNinxI_V4HJW-30" value="Adharcard" style="ellipse;whiteSpace=wrap;html=1;" parent="1" vertex="1">
          <mxGeometry x="115" y="380" width="90" height="30" as="geometry" />
        </mxCell>
        <mxCell id="srleR5UreNinxI_V4HJW-31" value="Seller_name" style="ellipse;whiteSpace=wrap;html=1;" parent="1" vertex="1">
          <mxGeometry x="570" y="250" width="90" height="30" as="geometry" />
        </mxCell>
        <mxCell id="srleR5UreNinxI_V4HJW-32" value="Phone number" style="ellipse;whiteSpace=wrap;html=1;" parent="1" vertex="1">
          <mxGeometry x="670" y="240" width="90" height="30" as="geometry" />
        </mxCell>
        <mxCell id="srleR5UreNinxI_V4HJW-33" value="Adharcard&lt;span style=&quot;color: rgba(0 , 0 , 0 , 0) ; font-family: monospace ; font-size: 0px&quot;&gt;%3CmxGraphModel%3E%3Croot%3E%3CmxCell%20id%3D%220%22%2F%3E%3CmxCell%20id%3D%221%22%20parent%3D%220%22%2F%3E%3CmxCell%20id%3D%222%22%20value%3D%22Seller_name%22%20style%3D%22ellipse%3BwhiteSpace%3Dwrap%3Bhtml%3D1%3B%22%20vertex%3D%221%22%20parent%3D%221%22%3E%3CmxGeometry%20x%3D%22580%22%20y%3D%22250%22%20width%3D%2290%22%20height%3D%2230%22%20as%3D%22geometry%22%2F%3E%3C%2FmxCell%3E%3C%2Froot%3E%3C%2FmxGraphModel%3E&lt;/span&gt;&lt;span style=&quot;color: rgba(0 , 0 , 0 , 0) ; font-family: monospace ; font-size: 0px&quot;&gt;%3CmxGraphModel%3E%3Croot%3E%3CmxCell%20id%3D%220%22%2F%3E%3CmxCell%20id%3D%221%22%20parent%3D%220%22%2F%3E%3CmxCell%20id%3D%222%22%20value%3D%22Seller_name%22%20style%3D%22ellipse%3BwhiteSpace%3Dwrap%3Bhtml%3D1%3B%22%20vertex%3D%221%22%20parent%3D%221%22%3E%3CmxGeometry%20x%3D%22580%22%20y%3D%22250%22%20width%3D%2290%22%20height%3D%2230%22%20as%3D%22geometry%22%2F%3E%3C%2FmxCell%3E%3C%2Froot%3E%3C%2FmxGraphModel%3E&lt;/span&gt;" style="ellipse;whiteSpace=wrap;html=1;" parent="1" vertex="1">
          <mxGeometry x="540" y="380" width="90" height="30" as="geometry" />
        </mxCell>
        <mxCell id="srleR5UreNinxI_V4HJW-35" value="Pan card" style="ellipse;whiteSpace=wrap;html=1;" parent="1" vertex="1">
          <mxGeometry x="640" y="380" width="90" height="30" as="geometry" />
        </mxCell>
        <mxCell id="srleR5UreNinxI_V4HJW-36" value="Email" style="ellipse;whiteSpace=wrap;html=1;" parent="1" vertex="1">
          <mxGeometry x="760" y="360" width="90" height="30" as="geometry" />
        </mxCell>
        <mxCell id="srleR5UreNinxI_V4HJW-37" value="Address" style="ellipse;whiteSpace=wrap;html=1;" parent="1" vertex="1">
          <mxGeometry x="750" y="280" width="90" height="30" as="geometry" />
        </mxCell>
        <mxCell id="srleR5UreNinxI_V4HJW-43" value="" style="endArrow=none;html=1;exitX=1;exitY=0.5;exitDx=0;exitDy=0;entryX=0;entryY=0.5;entryDx=0;entryDy=0;" parent="1" source="srleR5UreNinxI_V4HJW-26" target="srleR5UreNinxI_V4HJW-22" edge="1">
          <mxGeometry width="50" height="50" relative="1" as="geometry">
            <mxPoint x="350" y="320" as="sourcePoint" />
            <mxPoint x="400" y="270" as="targetPoint" />
          </mxGeometry>
        </mxCell>
        <mxCell id="srleR5UreNinxI_V4HJW-45" value="" style="endArrow=none;html=1;exitX=0.5;exitY=0;exitDx=0;exitDy=0;" parent="1" source="srleR5UreNinxI_V4HJW-22" edge="1">
          <mxGeometry width="50" height="50" relative="1" as="geometry">
            <mxPoint x="100" y="330" as="sourcePoint" />
            <mxPoint x="150" y="280" as="targetPoint" />
          </mxGeometry>
        </mxCell>
        <mxCell id="srleR5UreNinxI_V4HJW-46" value="" style="endArrow=none;html=1;entryX=0;entryY=1;entryDx=0;entryDy=0;" parent="1" source="srleR5UreNinxI_V4HJW-27" target="srleR5UreNinxI_V4HJW-22" edge="1">
          <mxGeometry width="50" height="50" relative="1" as="geometry">
            <mxPoint x="40" y="415" as="sourcePoint" />
            <mxPoint x="110.71067811865476" y="365" as="targetPoint" />
          </mxGeometry>
        </mxCell>
        <mxCell id="srleR5UreNinxI_V4HJW-47" value="" style="endArrow=none;html=1;entryX=0.343;entryY=1.07;entryDx=0;entryDy=0;entryPerimeter=0;exitX=0.724;exitY=0.08;exitDx=0;exitDy=0;exitPerimeter=0;" parent="1" source="srleR5UreNinxI_V4HJW-28" target="srleR5UreNinxI_V4HJW-22" edge="1">
          <mxGeometry width="50" height="50" relative="1" as="geometry">
            <mxPoint x="70" y="410" as="sourcePoint" />
            <mxPoint x="120" y="360" as="targetPoint" />
          </mxGeometry>
        </mxCell>
        <mxCell id="srleR5UreNinxI_V4HJW-48" value="" style="endArrow=none;html=1;exitX=0.689;exitY=0.933;exitDx=0;exitDy=0;exitPerimeter=0;entryX=0.25;entryY=0;entryDx=0;entryDy=0;" parent="1" source="srleR5UreNinxI_V4HJW-24" target="srleR5UreNinxI_V4HJW-22" edge="1">
          <mxGeometry width="50" height="50" relative="1" as="geometry">
            <mxPoint x="70" y="340" as="sourcePoint" />
            <mxPoint x="120" y="290" as="targetPoint" />
          </mxGeometry>
        </mxCell>
        <mxCell id="srleR5UreNinxI_V4HJW-50" value="" style="endArrow=none;html=1;entryX=0.75;entryY=1;entryDx=0;entryDy=0;exitX=0.5;exitY=0;exitDx=0;exitDy=0;" parent="1" source="srleR5UreNinxI_V4HJW-30" target="srleR5UreNinxI_V4HJW-22" edge="1">
          <mxGeometry width="50" height="50" relative="1" as="geometry">
            <mxPoint x="130" y="400" as="sourcePoint" />
            <mxPoint x="180" y="350" as="targetPoint" />
          </mxGeometry>
        </mxCell>
        <mxCell id="srleR5UreNinxI_V4HJW-51" value="" style="endArrow=none;html=1;entryX=0.769;entryY=1;entryDx=0;entryDy=0;entryPerimeter=0;exitX=0.348;exitY=-0.07;exitDx=0;exitDy=0;exitPerimeter=0;" parent="1" source="srleR5UreNinxI_V4HJW-23" target="srleR5UreNinxI_V4HJW-31" edge="1">
          <mxGeometry width="50" height="50" relative="1" as="geometry">
            <mxPoint x="620" y="330" as="sourcePoint" />
            <mxPoint x="670" y="280" as="targetPoint" />
          </mxGeometry>
        </mxCell>
        <mxCell id="srleR5UreNinxI_V4HJW-52" value="" style="endArrow=none;html=1;exitX=0.588;exitY=0.03;exitDx=0;exitDy=0;exitPerimeter=0;" parent="1" source="srleR5UreNinxI_V4HJW-23" edge="1">
          <mxGeometry width="50" height="50" relative="1" as="geometry">
            <mxPoint x="670" y="320" as="sourcePoint" />
            <mxPoint x="720" y="270" as="targetPoint" />
          </mxGeometry>
        </mxCell>
        <mxCell id="srleR5UreNinxI_V4HJW-53" value="" style="endArrow=none;html=1;exitX=0.64;exitY=0;exitDx=0;exitDy=0;exitPerimeter=0;" parent="1" source="srleR5UreNinxI_V4HJW-33" edge="1">
          <mxGeometry width="50" height="50" relative="1" as="geometry">
            <mxPoint x="580" y="400" as="sourcePoint" />
            <mxPoint x="630" y="350" as="targetPoint" />
          </mxGeometry>
        </mxCell>
        <mxCell id="srleR5UreNinxI_V4HJW-54" value="" style="endArrow=none;html=1;" parent="1" source="srleR5UreNinxI_V4HJW-35" edge="1">
          <mxGeometry width="50" height="50" relative="1" as="geometry">
            <mxPoint x="685" y="359.28932188134524" as="sourcePoint" />
            <mxPoint x="685" y="350" as="targetPoint" />
          </mxGeometry>
        </mxCell>
        <mxCell id="srleR5UreNinxI_V4HJW-55" value="" style="endArrow=none;html=1;entryX=0.926;entryY=1;entryDx=0;entryDy=0;entryPerimeter=0;exitX=0;exitY=0.5;exitDx=0;exitDy=0;" parent="1" source="srleR5UreNinxI_V4HJW-36" target="srleR5UreNinxI_V4HJW-23" edge="1">
          <mxGeometry width="50" height="50" relative="1" as="geometry">
            <mxPoint x="730" y="400" as="sourcePoint" />
            <mxPoint x="780" y="350" as="targetPoint" />
          </mxGeometry>
        </mxCell>
        <mxCell id="srleR5UreNinxI_V4HJW-57" value="" style="endArrow=none;html=1;entryX=0;entryY=0.5;entryDx=0;entryDy=0;" parent="1" source="srleR5UreNinxI_V4HJW-23" target="srleR5UreNinxI_V4HJW-37" edge="1">
          <mxGeometry width="50" height="50" relative="1" as="geometry">
            <mxPoint x="730" y="340" as="sourcePoint" />
            <mxPoint x="780" y="290" as="targetPoint" />
          </mxGeometry>
        </mxCell>
        <mxCell id="srleR5UreNinxI_V4HJW-58" value="" style="endArrow=none;html=1;exitX=1;exitY=0.25;exitDx=0;exitDy=0;entryX=0;entryY=0.5;entryDx=0;entryDy=0;entryPerimeter=0;" parent="1" source="srleR5UreNinxI_V4HJW-22" target="srleR5UreNinxI_V4HJW-1" edge="1">
          <mxGeometry width="50" height="50" relative="1" as="geometry">
            <mxPoint x="250" y="360" as="sourcePoint" />
            <mxPoint x="300" y="310" as="targetPoint" />
          </mxGeometry>
        </mxCell>
        <mxCell id="srleR5UreNinxI_V4HJW-59" value="" style="endArrow=none;html=1;exitX=1;exitY=0.5;exitDx=0;exitDy=0;exitPerimeter=0;entryX=0;entryY=0.25;entryDx=0;entryDy=0;" parent="1" source="srleR5UreNinxI_V4HJW-1" target="srleR5UreNinxI_V4HJW-23" edge="1">
          <mxGeometry width="50" height="50" relative="1" as="geometry">
            <mxPoint x="480" y="360" as="sourcePoint" />
            <mxPoint x="530" y="310" as="targetPoint" />
          </mxGeometry>
        </mxCell>
        <mxCell id="srleR5UreNinxI_V4HJW-60" value="ADMIN" style="rounded=0;whiteSpace=wrap;html=1;" parent="1" vertex="1">
          <mxGeometry x="250" y="440" width="120" height="60" as="geometry" />
        </mxCell>
        <mxCell id="srleR5UreNinxI_V4HJW-61" value="" style="endArrow=none;html=1;exitX=1;exitY=0.5;exitDx=0;exitDy=0;entryX=0.5;entryY=1;entryDx=0;entryDy=0;entryPerimeter=0;" parent="1" source="srleR5UreNinxI_V4HJW-60" target="srleR5UreNinxI_V4HJW-1" edge="1">
          <mxGeometry width="50" height="50" relative="1" as="geometry">
            <mxPoint x="350" y="430" as="sourcePoint" />
            <mxPoint x="400" y="380" as="targetPoint" />
            <Array as="points">
              <mxPoint x="400" y="470" />
            </Array>
          </mxGeometry>
        </mxCell>
        <mxCell id="srleR5UreNinxI_V4HJW-62" value="Admin ID" style="ellipse;whiteSpace=wrap;html=1;" parent="1" vertex="1">
          <mxGeometry x="150" y="460" width="80" height="40" as="geometry" />
        </mxCell>
        <mxCell id="srleR5UreNinxI_V4HJW-63" value="password" style="ellipse;whiteSpace=wrap;html=1;" parent="1" vertex="1">
          <mxGeometry x="205" y="530" width="80" height="40" as="geometry" />
        </mxCell>
        <mxCell id="srleR5UreNinxI_V4HJW-65" value="" style="endArrow=none;html=1;entryX=1;entryY=0.5;entryDx=0;entryDy=0;" parent="1" target="srleR5UreNinxI_V4HJW-62" edge="1">
          <mxGeometry width="50" height="50" relative="1" as="geometry">
            <mxPoint x="250" y="470" as="sourcePoint" />
            <mxPoint x="400" y="380" as="targetPoint" />
          </mxGeometry>
        </mxCell>
        <mxCell id="srleR5UreNinxI_V4HJW-66" value="" style="endArrow=none;html=1;exitX=0.618;exitY=0.05;exitDx=0;exitDy=0;exitPerimeter=0;" parent="1" source="srleR5UreNinxI_V4HJW-63" edge="1">
          <mxGeometry width="50" height="50" relative="1" as="geometry">
            <mxPoint x="250" y="540" as="sourcePoint" />
            <mxPoint x="290" y="500" as="targetPoint" />
          </mxGeometry>
        </mxCell>
        <mxCell id="srleR5UreNinxI_V4HJW-67" value="BUYER" style="ellipse;whiteSpace=wrap;html=1;" parent="1" vertex="1">
          <mxGeometry x="-210" y="50" width="60" height="30" as="geometry" />
        </mxCell>
        <mxCell id="srleR5UreNinxI_V4HJW-69" value="SELLER" style="ellipse;whiteSpace=wrap;html=1;" parent="1" vertex="1">
          <mxGeometry x="-210" y="90" width="60" height="30" as="geometry" />
        </mxCell>
        <mxCell id="srleR5UreNinxI_V4HJW-71" value="" style="endArrow=none;html=1;entryX=0;entryY=0.5;entryDx=0;entryDy=0;exitX=1;exitY=0.5;exitDx=0;exitDy=0;" parent="1" source="srleR5UreNinxI_V4HJW-67" target="srleR5UreNinxI_V4HJW-7" edge="1">
          <mxGeometry width="50" height="50" relative="1" as="geometry">
            <mxPoint x="-160" y="100" as="sourcePoint" />
            <mxPoint x="-100" y="90" as="targetPoint" />
          </mxGeometry>
        </mxCell>
        <mxCell id="srleR5UreNinxI_V4HJW-72" value="" style="endArrow=none;html=1;exitX=1;exitY=0;exitDx=0;exitDy=0;entryX=0;entryY=0.5;entryDx=0;entryDy=0;" parent="1" source="srleR5UreNinxI_V4HJW-69" target="srleR5UreNinxI_V4HJW-7" edge="1">
          <mxGeometry width="50" height="50" relative="1" as="geometry">
            <mxPoint x="100" y="150" as="sourcePoint" />
            <mxPoint x="150" y="100" as="targetPoint" />
          </mxGeometry>
        </mxCell>
        <mxCell id="srleR5UreNinxI_V4HJW-74" value="House Information" style="ellipse;whiteSpace=wrap;html=1;" parent="1" vertex="1">
          <mxGeometry x="450" y="430" width="120" height="60" as="geometry" />
        </mxCell>
        <mxCell id="srleR5UreNinxI_V4HJW-75" value="" style="endArrow=none;html=1;exitX=0.5;exitY=0;exitDx=0;exitDy=0;entryX=0;entryY=0.5;entryDx=0;entryDy=0;" parent="1" source="srleR5UreNinxI_V4HJW-74" target="srleR5UreNinxI_V4HJW-23" edge="1">
          <mxGeometry width="50" height="50" relative="1" as="geometry">
            <mxPoint x="460" y="420" as="sourcePoint" />
            <mxPoint x="510" y="330" as="targetPoint" />
            <Array as="points">
              <mxPoint x="510" y="330" />
            </Array>
          </mxGeometry>
        </mxCell>
        <mxCell id="srleR5UreNinxI_V4HJW-76" value="House Type" style="ellipse;whiteSpace=wrap;html=1;" parent="1" vertex="1">
          <mxGeometry x="460" y="510" width="80" height="40" as="geometry" />
        </mxCell>
        <mxCell id="srleR5UreNinxI_V4HJW-77" value="Appartment" style="ellipse;whiteSpace=wrap;html=1;" parent="1" vertex="1">
          <mxGeometry x="370" y="570" width="75" height="40" as="geometry" />
        </mxCell>
        <mxCell id="srleR5UreNinxI_V4HJW-78" value="Row House&lt;span style=&quot;color: rgba(0 , 0 , 0 , 0) ; font-family: monospace ; font-size: 0px&quot;&gt;%3CmxGraphModel%3E%3Croot%3E%3CmxCell%20id%3D%220%22%2F%3E%3CmxCell%20id%3D%221%22%20parent%3D%220%22%2F%3E%3CmxCell%20id%3D%222%22%20value%3D%22%22%20style%3D%22ellipse%3BwhiteSpace%3Dwrap%3Bhtml%3D1%3B%22%20vertex%3D%221%22%20parent%3D%221%22%3E%3CmxGeometry%20x%3D%22370%22%20y%3D%22570%22%20width%3D%2275%22%20height%3D%2240%22%20as%3D%22geometry%22%2F%3E%3C%2FmxCell%3E%3C%2Froot%3E%3C%2FmxGraphModel%3E&lt;/span&gt;" style="ellipse;whiteSpace=wrap;html=1;" parent="1" vertex="1">
          <mxGeometry x="550" y="570" width="80" height="40" as="geometry" />
        </mxCell>
        <mxCell id="srleR5UreNinxI_V4HJW-79" value="Tennament" style="ellipse;whiteSpace=wrap;html=1;" parent="1" vertex="1">
          <mxGeometry x="460" y="570" width="75" height="40" as="geometry" />
        </mxCell>
        <mxCell id="srleR5UreNinxI_V4HJW-80" value="Penthouse" style="ellipse;whiteSpace=wrap;html=1;" parent="1" vertex="1">
          <mxGeometry x="410" y="630" width="75" height="40" as="geometry" />
        </mxCell>
        <mxCell id="srleR5UreNinxI_V4HJW-81" value="Flat" style="ellipse;whiteSpace=wrap;html=1;" parent="1" vertex="1">
          <mxGeometry x="320" y="630" width="75" height="40" as="geometry" />
        </mxCell>
        <mxCell id="srleR5UreNinxI_V4HJW-83" value="BHK&#39;s" style="ellipse;whiteSpace=wrap;html=1;" parent="1" vertex="1">
          <mxGeometry x="445" y="690" width="120" height="60" as="geometry" />
        </mxCell>
        <mxCell id="srleR5UreNinxI_V4HJW-84" value="" style="endArrow=none;html=1;entryX=0.5;entryY=1;entryDx=0;entryDy=0;exitX=0.437;exitY=-0.044;exitDx=0;exitDy=0;exitPerimeter=0;" parent="1" source="srleR5UreNinxI_V4HJW-83" target="srleR5UreNinxI_V4HJW-79" edge="1">
          <mxGeometry width="50" height="50" relative="1" as="geometry">
            <mxPoint x="340" y="570" as="sourcePoint" />
            <mxPoint x="390" y="520" as="targetPoint" />
          </mxGeometry>
        </mxCell>
        <mxCell id="srleR5UreNinxI_V4HJW-85" value="" style="endArrow=none;html=1;exitX=0.727;exitY=0.003;exitDx=0;exitDy=0;exitPerimeter=0;entryX=0.5;entryY=1;entryDx=0;entryDy=0;entryPerimeter=0;" parent="1" source="srleR5UreNinxI_V4HJW-83" target="srleR5UreNinxI_V4HJW-78" edge="1">
          <mxGeometry width="50" height="50" relative="1" as="geometry">
            <mxPoint x="540" y="670" as="sourcePoint" />
            <mxPoint x="590" y="620" as="targetPoint" />
          </mxGeometry>
        </mxCell>
        <mxCell id="srleR5UreNinxI_V4HJW-86" value="" style="endArrow=none;html=1;entryX=0.5;entryY=1;entryDx=0;entryDy=0;exitX=0.061;exitY=0.27;exitDx=0;exitDy=0;exitPerimeter=0;" parent="1" source="srleR5UreNinxI_V4HJW-83" target="srleR5UreNinxI_V4HJW-80" edge="1">
          <mxGeometry width="50" height="50" relative="1" as="geometry">
            <mxPoint x="430" y="720" as="sourcePoint" />
            <mxPoint x="480" y="670" as="targetPoint" />
          </mxGeometry>
        </mxCell>
        <mxCell id="srleR5UreNinxI_V4HJW-87" value="" style="endArrow=none;html=1;entryX=0.5;entryY=1;entryDx=0;entryDy=0;exitX=0.053;exitY=0.285;exitDx=0;exitDy=0;exitPerimeter=0;" parent="1" source="srleR5UreNinxI_V4HJW-83" target="srleR5UreNinxI_V4HJW-81" edge="1">
          <mxGeometry width="50" height="50" relative="1" as="geometry">
            <mxPoint x="370" y="730" as="sourcePoint" />
            <mxPoint x="420" y="680" as="targetPoint" />
          </mxGeometry>
        </mxCell>
        <mxCell id="srleR5UreNinxI_V4HJW-88" value="" style="endArrow=none;html=1;entryX=0.5;entryY=1;entryDx=0;entryDy=0;exitX=0.625;exitY=0;exitDx=0;exitDy=0;exitPerimeter=0;" parent="1" source="srleR5UreNinxI_V4HJW-76" target="srleR5UreNinxI_V4HJW-74" edge="1">
          <mxGeometry width="50" height="50" relative="1" as="geometry">
            <mxPoint x="490" y="540" as="sourcePoint" />
            <mxPoint x="540" y="490" as="targetPoint" />
          </mxGeometry>
        </mxCell>
        <mxCell id="srleR5UreNinxI_V4HJW-89" value="" style="endArrow=none;html=1;exitX=0.708;exitY=0.016;exitDx=0;exitDy=0;exitPerimeter=0;entryX=0.045;entryY=0.716;entryDx=0;entryDy=0;entryPerimeter=0;" parent="1" source="srleR5UreNinxI_V4HJW-77" target="srleR5UreNinxI_V4HJW-76" edge="1">
          <mxGeometry width="50" height="50" relative="1" as="geometry">
            <mxPoint x="410" y="590" as="sourcePoint" />
            <mxPoint x="460" y="540" as="targetPoint" />
          </mxGeometry>
        </mxCell>
        <mxCell id="srleR5UreNinxI_V4HJW-90" value="" style="endArrow=none;html=1;exitX=0.5;exitY=0;exitDx=0;exitDy=0;" parent="1" source="srleR5UreNinxI_V4HJW-79" target="srleR5UreNinxI_V4HJW-76" edge="1">
          <mxGeometry width="50" height="50" relative="1" as="geometry">
            <mxPoint x="340" y="490" as="sourcePoint" />
            <mxPoint x="390" y="440" as="targetPoint" />
          </mxGeometry>
        </mxCell>
        <mxCell id="srleR5UreNinxI_V4HJW-91" value="" style="endArrow=none;html=1;entryX=1;entryY=1;entryDx=0;entryDy=0;exitX=0;exitY=0;exitDx=0;exitDy=0;" parent="1" source="srleR5UreNinxI_V4HJW-78" target="srleR5UreNinxI_V4HJW-76" edge="1">
          <mxGeometry width="50" height="50" relative="1" as="geometry">
            <mxPoint x="550" y="580" as="sourcePoint" />
            <mxPoint x="600" y="530" as="targetPoint" />
          </mxGeometry>
        </mxCell>
        <mxCell id="srleR5UreNinxI_V4HJW-92" value="" style="endArrow=none;html=1;entryX=0;entryY=1;entryDx=0;entryDy=0;" parent="1" source="srleR5UreNinxI_V4HJW-81" target="srleR5UreNinxI_V4HJW-77" edge="1">
          <mxGeometry width="50" height="50" relative="1" as="geometry">
            <mxPoint x="350" y="800" as="sourcePoint" />
            <mxPoint x="400" y="750" as="targetPoint" />
          </mxGeometry>
        </mxCell>
        <mxCell id="srleR5UreNinxI_V4HJW-93" value="" style="endArrow=none;html=1;exitX=0;exitY=0;exitDx=0;exitDy=0;" parent="1" source="srleR5UreNinxI_V4HJW-80" edge="1">
          <mxGeometry width="50" height="50" relative="1" as="geometry">
            <mxPoint x="410" y="650" as="sourcePoint" />
            <mxPoint x="419" y="610" as="targetPoint" />
          </mxGeometry>
        </mxCell>
        <mxCell id="srleR5UreNinxI_V4HJW-95" value="Address" style="ellipse;whiteSpace=wrap;html=1;" parent="1" vertex="1">
          <mxGeometry x="650" y="520" width="120" height="60" as="geometry" />
        </mxCell>
        <mxCell id="srleR5UreNinxI_V4HJW-96" value="" style="endArrow=none;html=1;entryX=0.961;entryY=0.721;entryDx=0;entryDy=0;entryPerimeter=0;exitX=0.376;exitY=-0.031;exitDx=0;exitDy=0;exitPerimeter=0;" parent="1" source="srleR5UreNinxI_V4HJW-95" target="srleR5UreNinxI_V4HJW-74" edge="1">
          <mxGeometry width="50" height="50" relative="1" as="geometry">
            <mxPoint x="710" y="630" as="sourcePoint" />
            <mxPoint x="680" y="520" as="targetPoint" />
          </mxGeometry>
        </mxCell>
        <mxCell id="6HlCB0rZ5aN2fZhEmbyn-1" value="" style="rounded=0;whiteSpace=wrap;html=1;" vertex="1" parent="1">
          <mxGeometry x="-490" y="610" width="230" height="450" as="geometry" />
        </mxCell>
        <mxCell id="6HlCB0rZ5aN2fZhEmbyn-6" value="ADMIN" style="shape=umlActor;verticalLabelPosition=bottom;verticalAlign=top;html=1;outlineConnect=0;" vertex="1" parent="1">
          <mxGeometry x="-670" y="750" width="90" height="140" as="geometry" />
        </mxCell>
        <mxCell id="6HlCB0rZ5aN2fZhEmbyn-7" value="USER" style="shape=umlActor;verticalLabelPosition=bottom;verticalAlign=top;html=1;outlineConnect=0;" vertex="1" parent="1">
          <mxGeometry x="-180" y="750" width="80" height="140" as="geometry" />
        </mxCell>
        <mxCell id="6HlCB0rZ5aN2fZhEmbyn-8" value="LOGIN" style="ellipse;whiteSpace=wrap;html=1;" vertex="1" parent="1">
          <mxGeometry x="-435" y="630" width="120" height="60" as="geometry" />
        </mxCell>
        <mxCell id="6HlCB0rZ5aN2fZhEmbyn-9" value="LOG OUT" style="ellipse;whiteSpace=wrap;html=1;" vertex="1" parent="1">
          <mxGeometry x="-435" y="990" width="120" height="60" as="geometry" />
        </mxCell>
        <mxCell id="6HlCB0rZ5aN2fZhEmbyn-10" value="ADD PROPERTY" style="ellipse;whiteSpace=wrap;html=1;" vertex="1" parent="1">
          <mxGeometry x="-435" y="700" width="120" height="40" as="geometry" />
        </mxCell>
        <mxCell id="6HlCB0rZ5aN2fZhEmbyn-11" value="PREDICTION" style="ellipse;whiteSpace=wrap;html=1;" vertex="1" parent="1">
          <mxGeometry x="-435" y="750" width="120" height="40" as="geometry" />
        </mxCell>
        <mxCell id="6HlCB0rZ5aN2fZhEmbyn-12" value="SEARCH PROPERTY" style="ellipse;whiteSpace=wrap;html=1;" vertex="1" parent="1">
          <mxGeometry x="-430" y="795" width="120" height="35" as="geometry" />
        </mxCell>
        <mxCell id="6HlCB0rZ5aN2fZhEmbyn-13" value="LOAN" style="ellipse;whiteSpace=wrap;html=1;" vertex="1" parent="1">
          <mxGeometry x="-435" y="950" width="120" height="30" as="geometry" />
        </mxCell>
        <mxCell id="6HlCB0rZ5aN2fZhEmbyn-14" value="ADD PROPERTY FOR SELLING" style="ellipse;whiteSpace=wrap;html=1;" vertex="1" parent="1">
          <mxGeometry x="-450" y="840" width="150" height="50" as="geometry" />
        </mxCell>
        <mxCell id="6HlCB0rZ5aN2fZhEmbyn-15" value="SEARCH FOR RENT" style="ellipse;whiteSpace=wrap;html=1;" vertex="1" parent="1">
          <mxGeometry x="-435" y="900" width="120" height="40" as="geometry" />
        </mxCell>
        <mxCell id="6HlCB0rZ5aN2fZhEmbyn-16" value="" style="endArrow=none;html=1;exitX=1;exitY=0.3333333333333333;exitDx=0;exitDy=0;exitPerimeter=0;" edge="1" parent="1" source="6HlCB0rZ5aN2fZhEmbyn-6">
          <mxGeometry width="50" height="50" relative="1" as="geometry">
            <mxPoint x="-480" y="710" as="sourcePoint" />
            <mxPoint x="-430" y="670" as="targetPoint" />
          </mxGeometry>
        </mxCell>
        <mxCell id="6HlCB0rZ5aN2fZhEmbyn-17" value="" style="endArrow=none;html=1;exitX=1;exitY=0.3333333333333333;exitDx=0;exitDy=0;exitPerimeter=0;entryX=0;entryY=0.5;entryDx=0;entryDy=0;" edge="1" parent="1" source="6HlCB0rZ5aN2fZhEmbyn-6" target="6HlCB0rZ5aN2fZhEmbyn-10">
          <mxGeometry width="50" height="50" relative="1" as="geometry">
            <mxPoint x="-550" y="820" as="sourcePoint" />
            <mxPoint x="-500" y="770" as="targetPoint" />
          </mxGeometry>
        </mxCell>
        <mxCell id="6HlCB0rZ5aN2fZhEmbyn-18" value="" style="endArrow=none;html=1;exitX=1;exitY=0.3333333333333333;exitDx=0;exitDy=0;exitPerimeter=0;entryX=0;entryY=0.5;entryDx=0;entryDy=0;" edge="1" parent="1" source="6HlCB0rZ5aN2fZhEmbyn-6" target="6HlCB0rZ5aN2fZhEmbyn-11">
          <mxGeometry width="50" height="50" relative="1" as="geometry">
            <mxPoint x="-550" y="830" as="sourcePoint" />
            <mxPoint x="-500" y="780" as="targetPoint" />
          </mxGeometry>
        </mxCell>
        <mxCell id="6HlCB0rZ5aN2fZhEmbyn-19" value="" style="endArrow=none;html=1;entryX=0;entryY=0.3333333333333333;entryDx=0;entryDy=0;entryPerimeter=0;exitX=0.952;exitY=0.803;exitDx=0;exitDy=0;exitPerimeter=0;" edge="1" parent="1" source="6HlCB0rZ5aN2fZhEmbyn-8" target="6HlCB0rZ5aN2fZhEmbyn-7">
          <mxGeometry width="50" height="50" relative="1" as="geometry">
            <mxPoint x="-240" y="750" as="sourcePoint" />
            <mxPoint x="-190" y="700" as="targetPoint" />
          </mxGeometry>
        </mxCell>
        <mxCell id="6HlCB0rZ5aN2fZhEmbyn-20" value="" style="endArrow=none;html=1;exitX=1;exitY=0.5;exitDx=0;exitDy=0;entryX=0;entryY=0.3333333333333333;entryDx=0;entryDy=0;entryPerimeter=0;" edge="1" parent="1" source="6HlCB0rZ5aN2fZhEmbyn-12" target="6HlCB0rZ5aN2fZhEmbyn-7">
          <mxGeometry width="50" height="50" relative="1" as="geometry">
            <mxPoint x="-260" y="860" as="sourcePoint" />
            <mxPoint x="-180" y="800" as="targetPoint" />
          </mxGeometry>
        </mxCell>
        <mxCell id="6HlCB0rZ5aN2fZhEmbyn-21" value="" style="endArrow=none;html=1;exitX=0.968;exitY=0.668;exitDx=0;exitDy=0;exitPerimeter=0;entryX=0;entryY=0.3333333333333333;entryDx=0;entryDy=0;entryPerimeter=0;" edge="1" parent="1" source="6HlCB0rZ5aN2fZhEmbyn-14" target="6HlCB0rZ5aN2fZhEmbyn-7">
          <mxGeometry width="50" height="50" relative="1" as="geometry">
            <mxPoint x="-270" y="880" as="sourcePoint" />
            <mxPoint x="-180" y="800" as="targetPoint" />
          </mxGeometry>
        </mxCell>
        <mxCell id="6HlCB0rZ5aN2fZhEmbyn-23" value="" style="endArrow=none;html=1;exitX=1;exitY=0.5;exitDx=0;exitDy=0;entryX=0;entryY=0.3333333333333333;entryDx=0;entryDy=0;entryPerimeter=0;" edge="1" parent="1" source="6HlCB0rZ5aN2fZhEmbyn-15" target="6HlCB0rZ5aN2fZhEmbyn-7">
          <mxGeometry width="50" height="50" relative="1" as="geometry">
            <mxPoint x="-280" y="930" as="sourcePoint" />
            <mxPoint x="-180" y="800" as="targetPoint" />
          </mxGeometry>
        </mxCell>
        <mxCell id="6HlCB0rZ5aN2fZhEmbyn-24" value="" style="endArrow=none;html=1;exitX=1;exitY=0.5;exitDx=0;exitDy=0;entryX=0;entryY=0.3333333333333333;entryDx=0;entryDy=0;entryPerimeter=0;" edge="1" parent="1" source="6HlCB0rZ5aN2fZhEmbyn-13" target="6HlCB0rZ5aN2fZhEmbyn-7">
          <mxGeometry width="50" height="50" relative="1" as="geometry">
            <mxPoint x="-305" y="930" as="sourcePoint" />
            <mxPoint x="-170" y="810" as="targetPoint" />
          </mxGeometry>
        </mxCell>
        <mxCell id="6HlCB0rZ5aN2fZhEmbyn-25" value="" style="endArrow=none;html=1;exitX=1;exitY=0.5;exitDx=0;exitDy=0;" edge="1" parent="1" source="6HlCB0rZ5aN2fZhEmbyn-9">
          <mxGeometry width="50" height="50" relative="1" as="geometry">
            <mxPoint x="-295" y="940" as="sourcePoint" />
            <mxPoint x="-180" y="800" as="targetPoint" />
          </mxGeometry>
        </mxCell>
        <mxCell id="6HlCB0rZ5aN2fZhEmbyn-27" value="" style="endArrow=none;html=1;exitX=1;exitY=0.3333333333333333;exitDx=0;exitDy=0;exitPerimeter=0;entryX=0;entryY=0.5;entryDx=0;entryDy=0;" edge="1" parent="1" source="6HlCB0rZ5aN2fZhEmbyn-6" target="6HlCB0rZ5aN2fZhEmbyn-9">
          <mxGeometry width="50" height="50" relative="1" as="geometry">
            <mxPoint x="-580" y="870" as="sourcePoint" />
            <mxPoint x="-530" y="820" as="targetPoint" />
          </mxGeometry>
        </mxCell>
      </root>
    </mxGraphModel>
  </diagram>
</mxfile>
